<?xml version="1.0" encoding="utf-8"?>
<!-- Generator: Adobe Illustrator 27.0.0, SVG Export Plug-In . SVG Version: 6.00 Build 0)  -->
<svg version="1.1" id="Layer_1" xmlns="http://www.w3.org/2000/svg" xmlns:xlink="http://www.w3.org/1999/xlink" x="0px" y="0px"
	 viewBox="0 0 64.2 67" style="enable-background:new 0 0 64.2 67;" xml:space="preserve">
<style type="text/css">
	.st0{fill:none;stroke:#010101;stroke-miterlimit:10;}
</style>
<polyline class="st0" points="14.3,33.9 9,36.5 1.2,64.8 16.4,57.7 32.9,66.3 49.1,57 63.4,66.3 56.2,37.4 51.2,34.6 "/>
<path class="st0" d="M32.4,49.6c0,0,18.1-18.6,18.1-32.2c0-13.6-11.4-16.9-18.6-16.9c-7.1,0-17.2,3.3-17.4,18.4
	C14.3,33.9,32.4,49.6,32.4,49.6z"/>
<path class="st0" d="M41,17.9c0,4.7-3.8,8.6-8.6,8.6c-4.7,0-8.6-3.8-8.6-8.6c0-4.7,3.8-8.6,8.6-8.6C37.1,9.3,41,13.2,41,17.9z"/>
</svg>
