<svg xmlns="http://www.w3.org/2000/svg" viewBox="0 0 23 22"><g id="Layer_2" data-name="Layer 2"><g id="Layer_1-2" data-name="Layer 1"><path d="M11.5,5.36A5.76,5.76,0,0,0,5.61,11a5.76,5.76,0,0,0,5.89,5.64A5.76,5.76,0,0,0,17.4,11,5.76,5.76,0,0,0,11.5,5.36Zm0,9.31A3.76,3.76,0,0,1,7.67,11,3.76,3.76,0,0,1,11.5,7.33,3.76,3.76,0,0,1,15.34,11a3.77,3.77,0,0,1-3.84,3.67ZM19,5.13a1.38,1.38,0,0,1-2.75,0,1.38,1.38,0,0,1,2.75,0Zm3.91,1.33a6.38,6.38,0,0,0-1.86-4.61A7,7,0,0,0,16.24.08C14.35,0,8.65,0,6.76.08A7,7,0,0,0,1.94,1.85,6.38,6.38,0,0,0,.08,6.46C0,8.28,0,13.72.08,15.54a6.38,6.38,0,0,0,1.86,4.61,7.06,7.06,0,0,0,4.82,1.77c1.89.11,7.59.11,9.48,0a7,7,0,0,0,4.82-1.77,6.38,6.38,0,0,0,1.86-4.61c.11-1.82.11-7.26,0-9.08Zm-2.45,11a3.81,3.81,0,0,1-2.19,2.1c-1.51.57-5.1.44-6.78.44s-5.27.13-6.78-.44a3.82,3.82,0,0,1-2.18-2.1C1.94,16,2.08,12.6,2.08,11s-.14-5,.46-6.48a3.79,3.79,0,0,1,2.18-2.1C6.24,1.85,9.83,2,11.5,2s5.27-.13,6.78.44a3.84,3.84,0,0,1,2.19,2.1c.6,1.44.46,4.88.46,6.48S21.07,16,20.47,17.48Z"/></g></g></svg>